<?xml version="1.0" encoding="UTF-8" standalone="no"?>
<!-- Created with Inkscape (http://www.inkscape.org/) -->

<svg
   width="20.352385mm"
   height="29.588232mm"
   viewBox="0 0 20.352385 29.588232"
   version="1.1"
   id="svg5"
   inkscape:version="1.1.1 (3bf5ae0d25, 2021-09-20)"
   xmlns:inkscape="http://www.inkscape.org/namespaces/inkscape"
   xmlns:sodipodi="http://sodipodi.sourceforge.net/DTD/sodipodi-0.dtd"
   xmlns="http://www.w3.org/2000/svg"
   xmlns:svg="http://www.w3.org/2000/svg">
  <sodipodi:namedview
     id="namedview7"
     pagecolor="#505050"
     bordercolor="#eeeeee"
     borderopacity="1"
     inkscape:pageshadow="0"
     inkscape:pageopacity="0"
     inkscape:pagecheckerboard="0"
     inkscape:document-units="mm"
     showgrid="false"
     inkscape:zoom="2.5620932"
     inkscape:cx="104.01651"
     inkscape:cy="45.86094"
     inkscape:window-width="1920"
     inkscape:window-height="1017"
     inkscape:window-x="2552"
     inkscape:window-y="-8"
     inkscape:window-maximized="1"
     inkscape:current-layer="g844" />
  <defs
     id="defs2">
    <clipPath
       id="clip0_103_21">
      <rect
         width="106"
         height="106"
         fill="#ffffff"
         transform="translate(0,21)"
         id="rect830"
         x="0"
         y="0" />
    </clipPath>
  </defs>
  <g
     inkscape:label="Layer 1"
     inkscape:groupmode="layer"
     id="layer1"
     transform="translate(-94.951068,-133.70588)">
    <g
       style="fill:none"
       id="g844"
       transform="matrix(0.26458333,0,0,0.26458333,92.569818,129.69203)">
      <g
         clip-path="url(#clip0_103_21)"
         id="g826"
         style="fill:#ffffff;fill-opacity:1;stroke:#000000;stroke-opacity:1;stroke-width:0.62362206;stroke-miterlimit:4;stroke-dasharray:none">
        <path
           d="m 77.3678,65.5974 c -2.1727,0 -4.1578,0.8155 -5.668,2.155 -1.212,-3.2533 -4.3489,-5.5768 -8.0192,-5.5768 -2.1728,0 -4.1578,0.8155 -5.6681,2.155 -1.212,-3.2533 -4.3489,-5.5768 -8.0191,-5.5768 -1.9244,0 -3.702,0.6389 -5.1328,1.7157 V 43.2416 c 0,-4.717 -3.8375,-8.5546 -8.5545,-8.5546 -4.717,0 -8.5545,3.8376 -8.5545,8.5546 v 32.7935 c -3.8999,0.7948 -6.8436,4.251 -6.8436,8.3823 v 10.2654 c 0,16.5962 12.4231,30.4852 28.8974,32.3062 0.0637,0.007 0.1273,0.011 0.19,0.011 0.8605,0 1.6016,-0.648 1.6983,-1.523 0.1037,-0.939 -0.5733,-1.785 -1.5124,-1.888 C 35.4436,121.959 24.3298,109.532 24.3298,94.683 V 84.4176 c 0,-2.2303 1.4306,-4.1321 3.4218,-4.8385 V 91.261 c 0,0.9451 0.766,1.7109 1.7109,1.7109 0.9449,0 1.7109,-0.7658 1.7109,-1.7109 V 43.2418 c 0,-2.8301 2.3024,-5.1327 5.1327,-5.1327 2.8303,0 5.1327,2.3026 5.1327,5.1327 V 77.574 c 0,0.9451 0.766,1.7109 1.7109,1.7109 0.9449,0 1.7109,-0.7658 1.7109,-1.7109 V 67.3085 c 0,-2.8301 2.3024,-5.1327 5.1328,-5.1327 2.8303,0 5.1327,2.3026 5.1327,5.1327 V 77.574 c 0,0.9451 0.766,1.7109 1.7109,1.7109 0.9449,0 1.7109,-0.7658 1.7109,-1.7109 v -6.8436 c 0,-2.8302 2.3024,-5.1328 5.1327,-5.1328 2.8303,0 5.1327,2.3026 5.1327,5.1328 v 6.8436 c 0,0.9451 0.766,1.7109 1.7109,1.7109 0.9449,0 1.7109,-0.7658 1.7109,-1.7109 v -3.4218 c 0,-2.8302 2.3024,-5.1328 5.1327,-5.1328 2.8304,0 5.1328,2.3026 5.1328,5.1328 V 94.683 c 0,14.85 -11.1139,27.276 -25.8516,28.906 -0.9391,0.103 -1.6163,0.949 -1.5124,1.888 0.0967,0.875 0.8377,1.523 1.6983,1.523 0.0627,0 0.1263,-0.004 0.1901,-0.011 16.4741,-1.821 28.8974,-15.71 28.8974,-32.3062 V 74.152 c -2e-4,-4.717 -3.8376,-8.5546 -8.5546,-8.5546 z"
           fill="#ffffff"
           fill-opacity="0.8"
           id="path824"
           style="fill:#ffffff;fill-opacity:1;stroke:#000000;stroke-opacity:1;stroke-width:0.62362206;stroke-miterlimit:4;stroke-dasharray:none" />
      </g>
      <path
         d="M 64.6602,27.1615 52.9945,15.4958 c -0.4667,-0.4433 -1.2016,-0.4317 -1.6449,0.0233 -0.4316,0.455 -0.4316,1.1666 0,1.6216 l 9.671,9.6709 H 12.9809 l 9.671,-9.6709 c 0.4432,-0.4667 0.4317,-1.2016 -0.0233,-1.6449 -0.455,-0.4317 -1.1666,-0.4317 -1.6216,0 L 9.34122,27.1615 c -0.45496,0.4549 -0.45496,1.1899 0,1.6449 L 21.007,40.4721 c 0.4667,0.4433 1.2016,0.4317 1.6449,-0.0232 0.4317,-0.455 0.4317,-1.1667 0,-1.6216 l -9.671,-9.671 h 48.028 l -9.671,9.671 c -0.4666,0.4432 -0.4782,1.1899 -0.0233,1.6448 0.4433,0.4667 1.19,0.4783 1.6449,0.0233 0.0117,-0.0117 0.0233,-0.0233 0.0233,-0.0233 L 64.6486,28.8064 c 0.4666,-0.4433 0.4666,-1.19 0.0116,-1.6449 z"
         fill="#ffffff"
         fill-opacity="0.8"
         id="path828"
         style="stroke:#000000;stroke-opacity:1;stroke-width:0.62362206;stroke-miterlimit:4;stroke-dasharray:none;fill:#ffffff;fill-opacity:1" />
    </g>
  </g>
</svg>
