<?xml version="1.0" encoding="UTF-8" standalone="no"?>
<!-- Created with Inkscape (http://www.inkscape.org/) -->

<svg
   width="94.338501mm"
   height="89.352776mm"
   viewBox="0 0 94.338501 89.352776"
   version="1.1"
   id="svg5"
   inkscape:version="1.1.1 (3bf5ae0d25, 2021-09-20)"
   xmlns:inkscape="http://www.inkscape.org/namespaces/inkscape"
   xmlns:sodipodi="http://sodipodi.sourceforge.net/DTD/sodipodi-0.dtd"
   xmlns="http://www.w3.org/2000/svg"
   xmlns:svg="http://www.w3.org/2000/svg">
  <sodipodi:namedview
     id="namedview7"
     pagecolor="#505050"
     bordercolor="#eeeeee"
     borderopacity="1"
     inkscape:pageshadow="0"
     inkscape:pageopacity="0"
     inkscape:pagecheckerboard="0"
     inkscape:document-units="mm"
     showgrid="false"
     inkscape:zoom="0.45291836"
     inkscape:cx="555.28771"
     inkscape:cy="-133.57816"
     inkscape:window-width="2560"
     inkscape:window-height="1377"
     inkscape:window-x="-8"
     inkscape:window-y="-8"
     inkscape:window-maximized="1"
     inkscape:current-layer="layer1" />
  <defs
     id="defs2" />
  <g
     inkscape:label="Layer 1"
     inkscape:groupmode="layer"
     id="layer1"
     transform="translate(23.001449,-99.053805)">
    <path
       id="path0"
       d="m 35.895182,99.302146 c -4.84799,-0.64908 -7.35581,1.322704 -10.16674,7.993954 l -1.58736,3.76732 -0.58518,-0.61177 c -1.6949,-1.77214 -4.7998,-2.21964 -6.48856,-0.9352 -1.29142,0.98185 -1.4895,1.42812 -2.71521,6.11699 -1.13473,4.34073 -1.18882,4.49021 -3.76583,10.39985 l -2.6145404,5.99603 -2.13718,2.3582 c -3.90493,4.30906 -4.78988,5.8983 -9.48363,17.03265 -3.721048,8.82612 -4.20663,9.79494 -5.902645,11.76913 -2.2523746,2.62203 -3.8520446,3.66637 -8.7880536,5.73649 -4.082289,1.71205 -4.523065,2.00725 -4.529329,3.03332 -0.01189,1.95797 1.306405,1.97596 5.777541,0.0783 5.426802,-2.30345 8.1398416,-4.24303 10.8789266,-7.7783 l 1.31282,-1.69434 4.59609005,-10.53668 C 4.8810516,140.14138 4.6912216,140.48288 8.4567216,136.27097 c 3.3947404,-3.79734 6.7431904,-11.07243 8.9409804,-19.42638 1.14735,-4.36185 1.19904,-4.50631 1.69323,-4.73679 0.83507,-0.38946 2.34642,0.47933 3.21044,1.84598 l 0.36847,0.58304 -10.98204,26.20641 -10.98194035,26.20617 -0.0193,1.2847 c -0.0361,2.41203 0.82609995,4.49712 2.59375995,6.27236 0.8325,0.83571 1.06469,0.9456 11.6783804,5.52792 l 10.82924,4.67514 -1.81114,0.058 c -1.99228,0.0641 -3.27537,-0.0327 -7.34061,-0.55317 -5.6671,-0.72547 -9.5987304,0.14252 -9.6107704,2.12196 -0.009,1.41148 1.04995,1.85756 3.0044004,1.2659 1.79058,-0.54214 3.07663,-0.53888 7.72062,0.0199 4.97575,0.59867 8.31735,0.48438 11.11562,-0.38051 l 1.8451,-0.56998 1.58388,0.66737 c 4.60899,1.94199 8.700268,0.82804 11.172258,-3.04227 0.70239,-1.09941 0.73807,-1.12343 1.44379,-0.97078 1.76299,0.38194 6.78038,-1.23126 8.61997,-2.77141 1.92821,-1.61421 2.36323,-4.40538 1.10418,-7.0872 l -0.64355,-1.37137 1.85945,-0.79822 c 3.67087,-1.57647 4.74997,-4.1198 3.27978,-7.73095 l -0.73789,-1.81251 1.84979,-0.80457 c 4.15019,-1.80575 5.0857,-5.99531 2.1945,-9.82823 -0.26743,-0.35471 -0.0577,-0.47825 2.888,-1.70478 3.38517,-1.40946 4.3031,-2.02757 5.14584,-3.46348 2.24402,-3.82397 -0.9664,-8.9585 -5.51431,-8.81933 -0.71725,0.0219 -1.33239,0.0277 -1.36702,0.0132 -0.0346,-0.0146 1.47643,-3.75204 3.35789,-8.30529 3.31606,-8.02489 3.42139,-8.31557 3.43319,-9.48231 0.025,-2.50484 -0.81411,-4.59915 -2.5249,-6.30018 l -0.91093,-0.90579 -14.96642,-6.3509 C 39.51532,100.51387 36.825322,99.426456 35.895232,99.302076 m 6.079108,9.146304 c 0.30532,4.35119 -0.38363,3.69742 7.3134,6.94056 7.69726,3.24323 6.74795,3.20672 10.07536,0.38618 l 2.62623,-2.22622 1.56633,0.6654 c 1.80552,0.76618 2.59939,1.49663 3.18114,2.92608 0.82208,2.0188 1.17193,0.96839 -5.99563,17.99299 l -6.41919,15.24773 -1.78124,0.78638 c -3.53818,1.56204 -4.60823,4.11119 -3.19212,7.60453 0.8437,2.08131 0.94006,1.7906 -0.85311,2.57051 -3.87175,1.68391 -5.11373,4.78623 -3.35833,8.38951 l 0.59868,1.22844 -1.53118,0.66577 c -3.8413,1.67091 -5.05152,4.34217 -3.59819,7.94278 1.16525,2.88606 -0.74082,5.41055 -4.156168,5.50496 -1.41491,0.0389 -30.1582904,-12.07208 -31.1187004,-13.11184 -0.79233,-0.85812 -1.35993,-2.25232 -1.39226,-3.41984 -0.0393,-1.42485 26.2184604,-63.74321 27.2655104,-64.71002 1.9311,-1.78325 3.40809,-1.80664 7.431488,-0.1177 l 3.0973,1.29961 0.24113,3.43438 m 15.1601,4.85281 -1.41088,1.20341 -5.14907,-2.16956 -5.14882,-2.16945 -0.12447,-1.85033 -0.12423,-1.85023 6.68417,2.81637 6.68442,2.81648 -1.41112,1.20331 m 10.07789,28.06444 c 1.95895,2.22822 0.98176,3.43263 -4.6221,5.69566 l -3.94558,1.59336 1.52993,-3.63101 1.52993,-3.63103 1.28186,-0.50812 c 2.09345,-0.83025 3.1822,-0.70628 4.22596,0.48114 m -7.47,11.7685 c 2.0831,2.12435 1.47938,3.91219 -1.7853,5.28714 -3.81476,1.60657 -4.91695,1.36869 -5.78956,-1.24907 -0.5765,-1.73014 0.10947,-2.47987 3.46308,-3.78376 2.79316,-1.08583 3.2678,-1.11524 4.11178,-0.25431 m -3.58659,11.63847 c 0.89976,2.21058 0.55848,2.6812 -2.99271,4.12694 l -2.83103,1.15255 -0.96066,-0.5179 c -0.85059,-0.45888 -1.01266,-0.65751 -1.4171,-1.73778 -0.78115,-2.08596 -0.23897,-2.73292 3.47086,-4.14224 3.15498,-1.19838 3.85476,-1.03302 4.73064,1.11843 m -4.71981,9.56694 c 1.51024,2.3099 0.9686,3.38143 -2.42418,4.79802 -3.26395,1.36234 -4.13427,1.30599 -5.24092,-0.34003 -1.3443,-1.9991 -0.64187,-3.09246 2.91832,-4.54186 3.28434,-1.3371 3.82412,-1.32758 4.74678,0.0839"
       stroke="none"
       fill="#000000"
       fill-rule="evenodd"
       style="fill:#ffffff;fill-opacity:1;stroke:#000028;stroke-width:0.264583;stroke-opacity:1" />
  </g>
</svg>
